<?xml version="1.0" encoding="iso-8859-1"?>
<!-- Generator: Adobe Illustrator 19.0.0, SVG Export Plug-In . SVG Version: 6.00 Build 0)  -->
<svg xmlns="http://www.w3.org/2000/svg" xmlns:xlink="http://www.w3.org/1999/xlink" version="1.1" id="Layer_1" x="0px" y="0px" viewBox="0 0 512 512" style="enable-background:new 0 0 512 512;" xml:space="preserve" width="512" height="512">
<g>
	<path style="fill:#B35F49;" d="M256,0l-75,35.7v43.9l35.7,71.4h78.6l39-78.001L256,0z"/>
	<polygon style="fill:#99503D;" points="295.3,151 256,151 256,0 334.3,72.999  "/>
	<path style="fill:#B35F49;" d="M442.599,407.199l-41.1-13.5L355.3,301h-88.5L256,268.599L236.8,211h-60l-28.5-85.501l-48.898-24.6   C94.3,98.2,91,93.1,91,87.4V76C91,34.6,56.4,0,15,0H0v512h512v-15C512,454.699,482.5,417.1,442.599,407.199z"/>
	<path style="fill:#99503D;" d="M512,497v15H256V268.599L266.8,301h88.5l46.199,92.699l41.1,13.5C482.5,417.1,512,454.699,512,497z"/>
	<rect x="361" y="91" style="fill:#663325;" width="30" height="30"/>
	<rect x="482" y="361" style="fill:#663325;" width="30" height="30"/>
	<rect x="91" y="271" style="fill:#99503D;" width="30" height="30"/>
	<rect x="61" y="181" style="fill:#99503D;" width="30" height="30"/>
	<rect x="121" style="fill:#B35F49;" width="30" height="30"/>
	<rect x="421" y="301" style="fill:#663325;" width="30" height="30"/>
	<rect x="181" y="421" style="fill:#99503D;" width="30" height="30"/>
	<rect x="301" y="391" style="fill:#663325;" width="30" height="30"/>
	<rect x="61" y="391" style="fill:#99503D;" width="30" height="30"/>
	<rect x="271" y="211" style="fill:#663325;" width="30" height="30"/>
	<rect x="181" y="331" style="fill:#99503D;" width="30" height="30"/>
	<path style="fill:#99503D;" d="M422.904,275.307L361,234.027v-27.568L397.973,151h46.055l41.279,61.904L422.904,275.307z"/>
</g>















</svg>
