<?xml version="1.0" encoding="iso-8859-1"?>
<!-- Generator: Adobe Illustrator 19.0.0, SVG Export Plug-In . SVG Version: 6.00 Build 0)  -->
<svg xmlns="http://www.w3.org/2000/svg" xmlns:xlink="http://www.w3.org/1999/xlink" version="1.1" id="Layer_1" x="0px" y="0px" viewBox="0 0 511.707 511.707" style="enable-background:new 0 0 511.707 511.707;" xml:space="preserve" width="512" height="512">
<g>
	<path style="fill:#ECECF1;" d="M267.012,350.76l-85.852,85.852c-37.335,37.335-103.096,75.096-166.1,74.882L0,511.707l0.212-15.061   c-0.214-63.004,37.546-128.764,74.882-166.1l85.852-85.852l48.154,26.941l30.97,30.97L267.012,350.76z"/>
	<path style="fill:#D3D3D8;" d="M267.012,350.76l-85.852,85.852c-37.335,37.335-103.096,75.096-166.1,74.882L0,511.707   l224.586-224.586l15.485,15.485L267.012,350.76z"/>
	<path style="fill:#FF637B;" d="M414.444,328.487c-43.911,33.305-103.945,39.456-154.008,14.424l-2.333-1.059l-43.911-44.336   l-45.395-46.245c-25.033-50.063-18.881-110.097,14.424-154.008c0,0,18.032,3.606,29.911,6.153l65.76,65.76l-22.486,22.486   c-5.939,5.939-5.94,15.273,0,21.213l42.426,42.426c5.94,5.94,15.274,5.939,21.213,0l22.486-22.486l68.095,68.095L414.444,328.487z"/>
	<path style="fill:#E63950;" d="M414.444,328.487c-43.911,33.305-103.945,39.456-154.008,14.424l-2.333-1.059l-43.911-44.336   l63.427-63.427l21.213,21.213c5.94,5.94,15.274,5.939,21.213,0l22.486-22.486l68.095,68.095L414.444,328.487z"/>
	<g>
		<g>
			<path style="fill:#E63950;" d="M362.472,21.956c-29.274-29.274-76.792-29.274-106.066,0l-64.063,64.063     c-3.182,3.607-6.364,7.213-9.123,11.244l73.186,73.186c3.818,3.818,7.85,6.576,12.516,8.697     c16.547,8.061,37.335,5.091,51.123-8.697l42.426-42.426C391.746,98.747,391.746,51.23,362.472,21.956z M298.832,149.235     c-5.939,5.939-15.273,5.94-21.213,0l-53.033-53.033l53.033-53.033c17.607-17.607,46.032-17.607,63.64,0     c17.607,17.607,17.607,46.032,0,63.64L298.832,149.235z"/>
		</g>
	</g>
	<g>
		<g>
			<path style="fill:#AE2538;" d="M489.751,149.235c-29.274-29.274-76.792-29.274-106.066,0l-42.426,42.426     c-13.788,13.788-16.758,34.576-8.697,51.123c2.121,4.666,4.879,8.698,8.697,12.516l73.186,73.186     c4.031-2.759,7.636-5.94,11.244-9.123l64.063-64.063C519.025,226.027,519.025,178.509,489.751,149.235z M404.898,170.448     c17.607-17.607,46.032-17.607,63.64,0s17.607,46.032,0,63.64l-53.033,53.033l-53.033-53.033c-5.94-5.94-5.939-15.274,0-21.213     L404.898,170.448z"/>
		</g>
	</g>
	<g>
		<g>
			<path style="fill:#D3D3D8;" d="M277.619,234.088l-101.611-4.455l-15.062,15.062c-29.274,29.274-29.274,76.792,0,106.066     s76.792,29.274,106.066,0l15.062-15.062L277.619,234.088z"/>
		</g>
	</g>
	<path style="fill:#BABAC0;" d="M282.074,335.699l-15.062,15.062c-29.274,29.274-76.792,29.274-106.066,0l116.673-116.673   L282.074,335.699z"/>
	<g>
		<rect x="198.918" y="282.666" style="fill:#895D3C;" width="30.122" height="30.122"/>
	</g>
	<polygon style="fill:#714C2F;" points="229.041,312.789 198.919,312.788 229.041,282.666  "/>
</g>















</svg>
