<?xml version="1.0"?>
<svg xmlns="http://www.w3.org/2000/svg" id="Layer_1" data-name="Layer 1" viewBox="0 0 512 512" width="512" height="512"><title>Scissor</title><path d="M465.02,365.64a87.5,87.5,0,1,1-114.46-46.73A87.417,87.417,0,0,1,465.02,365.64Zm-58.51,86.43a57.016,57.016,0,1,0-74.65-30.48A57.024,57.024,0,0,0,406.51,452.07Z" style="fill:#00efd1"/><path d="M301.93,25.05a78.375,78.375,0,0,1,41.9,102.62L297.5,237.96l-9.71,23.1-9.81,23.36-72.26-30.36,6.86-16.33,42.5-101.18Zm-30.9,212.11a15.04,15.04,0,1,0-15.04,15.04A15.035,15.035,0,0,0,271.03,237.16Z" style="fill:#fedb41"/><path d="M334.81,326.32l.55.81a87.287,87.287,0,0,0-34.59,47l-1.12-.34-25.43,10.68-19.14-45.55,22.9-54.5,9.81-23.36,16.66-7Z" style="fill:#00acea"/><path d="M255.08,338.92l-19.13,45.55-24.04-10.1a87.352,87.352,0,0,0-36.41-48.38l30.22-71.93,72.26,30.36Z" style="fill:#00acea"/><circle cx="255.99" cy="237.16" r="15.04" style="fill:#00efd1"/><path d="M255.08,136.55l-42.5,101.18L166.34,127.67a78.375,78.375,0,0,1,41.9-102.62Z" style="fill:#f4b844"/><path d="M211.91,374.37a87.243,87.243,0,1,1-36.41-48.38A87.074,87.074,0,0,1,211.91,374.37Zm-31.17,47.22a57.016,57.016,0,1,0-74.65,30.48A57.024,57.024,0,0,0,180.74,421.59Z" style="fill:#00efd1"/><path d="M472.4,362.542a95.412,95.412,0,0,0-124.933-51.008q-4.35,1.827-8.483,4.06l-32.709-77.861,44.934-106.964A86.478,86.478,0,0,0,305.028,17.674a8,8,0,0,0-10.473,4.277L255.084,115.9,215.616,21.951a8,8,0,0,0-10.474-4.277,86.478,86.478,0,0,0-46.178,113.1L203.9,237.73l-32.281,76.839c-2.134-1.089-4.3-2.113-6.491-3.034a95.432,95.432,0,1,0,57.716,76.109l10.006,4.2a8,8,0,0,0,10.474-4.278l11.758-27.988,11.761,27.989a7.992,7.992,0,0,0,10.472,4.277l12.592-5.288A95.411,95.411,0,1,0,472.4,362.542ZM306.031,35.941a70.482,70.482,0,0,1,30.423,88.631l-56.04,133.4c-.016.036-.031.071-.046.108L273.7,273.945,216.19,249.782l3.755-8.939c.021-.05.043-.1.063-.149l42.447-101.045.031-.075h0Zm-132.316,88.63a70.482,70.482,0,0,1,30.424-88.63l42.267,100.617L212.58,217.075Zm27.679,305.691a79.523,79.523,0,1,1-42.457-103.974,80.127,80.127,0,0,1,10.445,5.336,7.9,7.9,0,0,0,3.654,2.35A79.36,79.36,0,0,1,202.7,372.106a8.006,8.006,0,0,0,2.366,7.53A79.571,79.571,0,0,1,201.394,430.262ZM231.673,374l-13.29-5.581a95.457,95.457,0,0,0-33.008-45.278l24.618-58.6L267.506,288.7l-19.737,46.984c-.04.087-.076.176-.112.265Zm32.088-35.07L293.9,267.168l6.27-2.634,25.211,60.007a95.643,95.643,0,0,0-30.736,42.672L278.5,374Zm151.421,133.8a79.431,79.431,0,0,1-75.34-138.968l.008-.006a79.428,79.428,0,1,1,75.332,138.974Z" style="fill:#083863"/><path d="M359.24,339.565a65.015,65.015,0,0,0-34.755,85.124h0a65.016,65.016,0,1,0,34.755-85.124Zm44.172,105.129a49.083,49.083,0,0,1-64.177-26.2h0a49.016,49.016,0,1,1,64.177,26.2Z" style="fill:#083863"/><path d="M153.3,339.565a65.005,65.005,0,1,0-25.279,124.952c25.406,0,49.978-14.981,59.978-39.828v0A64.973,64.973,0,0,0,153.3,339.565Zm20.063,78.928a49.076,49.076,0,1,1-26.2-64.178A49.088,49.088,0,0,1,173.364,418.493Z" style="fill:#083863"/><path d="M255.99,214.12a23.04,23.04,0,1,0,23.04,23.04A23.066,23.066,0,0,0,255.99,214.12Zm0,30.08a7.04,7.04,0,1,1,7.04-7.04A7.048,7.048,0,0,1,255.99,244.2Z" style="fill:#083863"/></svg>
